<?xml version="1.0" encoding="UTF-8"?>
<!DOCTYPE svg PUBLIC "-//W3C//DTD SVG 1.1//EN" "http://www.w3.org/Graphics/SVG/1.1/DTD/svg11.dtd">
<!-- Creator: CorelDRAW 2020 (64-Bit) -->
<svg xmlns="http://www.w3.org/2000/svg" xml:space="preserve" width="426px" height="428px" version="1.1" style="shape-rendering:geometricPrecision; text-rendering:geometricPrecision; image-rendering:optimizeQuality; fill-rule:evenodd; clip-rule:evenodd"
viewBox="0 0 18.22 18.3"
 xmlns:xlink="http://www.w3.org/1999/xlink"
 xmlns:xodm="http://www.corel.com/coreldraw/odm/2003">
 <defs>
  <style type="text/css">
   <![CDATA[
    .fil1 {fill:black}
    .fil0 {fill:white}
   ]]>
  </style>
 </defs>
 <g id="Capa_x0020_1">
  <metadata id="CorelCorpID_0Corel-Layer"/>
  <rect class="fil0" width="18.22" height="18.3" rx="0.25" ry="0.25"/>
  <g id="_2833278053024">
   <path class="fil1" d="M5.22 10.92l0 0.7 -0.7 0 0 -0.7 -3.52 0 0 0.7 -0.7 0 0 0.7 1.41 0 0 -0.7 0.7 0 0 0.7 0.7 0 0 -0.7 0.7 0 0 0.7 2.11 0 0 -0.7 2.11 0 0 0.7 1.41 0 0 -0.7 0.7 0 0 1.41 0.7 0 0 0.7 0.7 0 0 1.41 2.82 0 0 1.4 0.7 0 0 0.7 0.7 0 0 -0.7 0.7 0 0 -1.4 -0.7 0 0 0.7 -0.7 0 0 -1.41 1.4 0 0 -0.7 -1.4 0 0 -0.7 1.4 0 0 -1.41 -0.7 0 0 -0.7 -0.7 0 0 0.7 -1.41 0 0 -0.7 -1.4 0 0 0.7 -0.71 0 0 -0.7 -2.1 0 0 -1.41 0.7 0 0 -1.4 -0.7 0 0 0.7 -0.71 0 0 0.7 -1.4 0 0 0.71 -0.7 0 0 -0.71 -0.71 0 0 1.41 -0.7 0zm7.03 3.51l2.11 0 0 -2.11 -2.11 0 0 2.11z"/>
   <path class="fil1" d="M13.03 5.3l4.84 0 0 -4.92 -4.84 0 0 4.92zm0.71 -0.71l3.43 0 0 -3.51 -3.43 0 0 3.51z"/>
   <path class="fil1" d="M0.38 5.3l4.84 0 0 -4.92 -4.84 0 0 4.92zm0.71 -0.71l3.42 0 0 -3.51 -3.42 0 0 3.51z"/>
   <path class="fil1" d="M0.38 17.95l4.84 0 0 -4.92 -4.84 0 0 4.92zm0.71 -0.71l3.42 0 0 -3.51 -3.42 0 0 3.51z"/>
   <polygon class="fil1" points="6.63,1.08 5.92,1.08 5.92,2.49 6.63,2.49 6.63,3.19 8.73,3.19 8.73,2.49 9.44,2.49 9.44,1.08 10.14,1.08 10.14,3.89 9.44,3.89 9.44,4.59 10.14,4.59 10.14,6 9.44,6 9.44,7.4 10.14,7.4 10.14,6.7 10.84,6.7 10.84,6 11.54,6 11.54,5.3 10.84,5.3 10.84,4.59 11.54,4.59 11.54,3.89 12.25,3.89 12.25,3.19 11.54,3.19 11.54,2.49 10.84,2.49 10.84,1.78 11.54,1.78 11.54,0.38 8.73,0.38 8.73,1.08 8.03,1.08 8.03,1.78 6.63,1.78 "/>
   <polygon class="fil1" points="12.25,9.51 12.25,10.22 13.65,10.22 13.65,10.92 15.06,10.92 15.06,10.22 14.36,10.22 14.36,8.81 13.65,8.81 13.65,6.7 15.06,6.7 15.06,6 12.95,6 12.95,7.4 12.25,7.4 12.25,6 11.54,6 11.54,8.81 10.84,8.81 10.84,9.51 "/>
   <polygon class="fil1" points="1.71,6.7 1.71,8.11 3.11,8.11 3.11,10.22 3.81,10.22 3.81,9.51 5.22,9.51 5.22,8.81 4.52,8.81 4.52,8.11 5.22,8.11 5.22,7.4 3.11,7.4 3.11,6 2.41,6 2.41,6.7 "/>
   <polygon class="fil1" points="7.33,14.43 8.73,14.43 8.73,15.84 10.14,15.84 10.14,15.14 10.84,15.14 10.84,14.43 9.44,14.43 9.44,13.73 8.03,13.73 8.03,12.32 5.92,12.32 5.92,13.73 6.63,13.73 6.63,13.03 7.33,13.03 "/>
   <polygon class="fil1" points="14.36,2.25 14.36,2.72 14.36,3.89 16.47,3.89 16.47,3.81 16.47,1.78 16.39,1.78 14.35,1.78 "/>
   <polygon class="fil1" points="1.7,14.9 1.7,15.37 1.7,16.54 3.81,16.54 3.81,16.46 3.81,14.43 3.74,14.43 1.7,14.43 "/>
   <polygon class="fil1" points="1.7,2.25 1.7,2.72 1.7,3.89 3.77,3.89 3.81,3.81 3.81,1.78 3.74,1.78 1.7,1.78 "/>
   <polygon class="fil1" points="5.22,8.11 5.22,8.81 6.63,8.81 6.63,8.11 8.03,8.11 8.03,7.4 8.73,7.4 8.73,6.7 8.03,6.7 8.03,6 7.33,6 7.33,7.4 5.92,7.4 5.92,8.11 "/>
   <polygon class="fil1" points="10.14,16.54 7.33,16.54 7.33,17.95 10.14,17.95 "/>
   <polygon class="fil1" points="5.92,6 7.33,6 7.33,5.3 6.63,5.3 6.63,4.59 7.33,4.59 7.33,3.89 6.63,3.89 6.63,3.19 5.92,3.19 "/>
   <polygon class="fil1" points="1,10.22 2.41,10.22 2.41,9.51 1.71,9.51 1.71,8.11 0.3,8.11 0.3,8.81 1,8.81 "/>
   <polygon class="fil1" points="16.46,9.51 17.17,9.51 17.17,10.92 17.87,10.92 17.87,8.81 16.46,8.81 "/>
   <polygon class="fil1" points="15.06,10.22 15.76,10.22 15.76,10.92 16.46,10.92 16.46,9.51 15.76,9.51 15.76,8.81 15.06,8.81 "/>
   <polygon class="fil1" points="6.63,16.54 7.33,16.54 7.33,14.43 6.63,14.43 6.63,15.14 5.92,15.14 5.92,15.84 6.63,15.84 "/>
   <polygon class="fil1" points="16.46,13.03 16.46,13.73 17.87,13.73 17.87,12.32 17.17,12.32 17.17,13.03 "/>
   <polygon class="fil1" points="17.17,6.7 17.17,7.4 16.46,7.4 16.46,8.11 17.87,8.11 17.87,6.7 "/>
   <polygon class="fil1" points="11.54,16.54 11.54,17.24 10.84,17.24 10.84,17.95 12.25,17.95 12.25,16.54 "/>
   <polygon class="fil1" points="1.71,6.7 1.71,6 0.3,6 0.3,6.7 "/>
   <polygon class="fil1" points="9.44,6 9.44,4.59 8.73,4.59 8.73,6 "/>
   <polygon class="fil1" points="16.46,17.95 17.87,17.95 17.87,17.24 16.46,17.24 "/>
   <polygon class="fil1" points="5.92,6 4.52,6 4.52,6.7 5.92,6.7 "/>
   <polygon class="fil1" points="6.63,16.54 5.92,16.54 5.92,17.95 6.63,17.95 "/>
   <polygon class="fil1" points="17.17,6.7 17.17,6 15.76,6 15.76,6.7 "/>
   <polygon class="fil1" points="8.03,11.62 8.73,11.62 8.73,10.22 8.03,10.22 "/>
   <polygon class="fil1" points="10.14,16.54 11.54,16.54 11.54,15.84 10.14,15.84 "/>
   <polygon class="fil1" points="10.14,8.11 10.84,8.11 10.84,7.4 10.14,7.4 "/>
   <polygon class="fil1" points="11.54,10.92 12.25,10.92 12.25,10.22 11.54,10.22 "/>
   <polygon class="fil1" points="14.36,8.81 15.06,8.81 15.06,8.11 14.36,8.11 "/>
   <polygon class="fil1" points="4.52,10.92 5.22,10.92 5.22,10.22 4.52,10.22 "/>
   <polygon class="fil1" points="1,10.92 1,10.22 0.3,10.22 0.3,10.92 "/>
   <polygon class="fil1" points="11.54,5.3 12.25,5.3 12.25,4.59 11.54,4.59 "/>
   <polygon class="fil1" points="9.44,13.73 10.14,13.73 10.14,13.03 9.44,13.03 "/>
   <polygon class="fil1" points="12.95,13.73 13.65,13.73 13.65,13.03 12.95,13.03 "/>
   <polygon class="fil1" points="13.65,17.95 14.36,17.95 14.36,17.24 13.65,17.24 "/>
   <polygon class="fil1" points="7.33,5.3 8.03,5.3 8.03,4.59 7.33,4.59 "/>
   <polygon class="fil1" points="8.03,4.59 8.73,4.59 8.73,3.89 8.03,3.89 "/>
   <polygon class="fil1" points="16.46,15.14 17.17,15.14 17.17,14.43 16.46,14.43 "/>
   <polygon class="fil1" points="6.63,1.08 7.33,1.08 7.33,0.38 6.63,0.38 "/>
   <polygon class="fil1" points="17.17,16.54 17.87,16.54 17.87,15.84 17.17,15.84 "/>
   <polygon class="fil1" points="16.46,11.62 17.17,11.62 17.17,10.92 16.46,10.92 "/>
  </g>
 </g>
</svg>
